<svg xmlns="http://www.w3.org/2000/svg" width="266.156" height="25.782" viewBox="0 0 266.156 25.782">
  <metadata><?xpacket begin="﻿" id="W5M0MpCehiHzreSzNTczkc9d"?>
<x:xmpmeta xmlns:x="adobe:ns:meta/" x:xmptk="Adobe XMP Core 5.6-c138 79.159824, 2016/09/14-01:09:01        ">
   <rdf:RDF xmlns:rdf="http://www.w3.org/1999/02/22-rdf-syntax-ns#">
      <rdf:Description rdf:about=""/>
   </rdf:RDF>
</x:xmpmeta>
                                                                                                    
                                                                                                    
                                                                                                    
                                                                                                    
                                                                                                    
                                                                                                    
                                                                                                    
                                                                                                    
                                                                                                    
                                                                                                    
                                                                                                    
                                                                                                    
                                                                                                    
                                                                                                    
                                                                                                    
                                                                                                    
                                                                                                    
                                                                                                    
                                                                                                    
                                                                                                    
                           
<?xpacket end="w"?></metadata>
<defs>
    <style>
      .cls-1 {
        fill: red;
        fill-rule: evenodd;
      }
    </style>
  </defs>
  <path id="RZD.MARKET" class="cls-1" d="M162.834,279.836l1.844-10.459h0.7a2.881,2.881,0,0,1,1.846.6,4.719,4.719,0,0,1,1.091,1.986l2.866,7.875h9l-2.533-7.471a7.966,7.966,0,0,0-.834-1.6,6.184,6.184,0,0,0-1.036-1.354,6.45,6.45,0,0,0-1.907-.949,11.366,11.366,0,0,0,2.975-1.02,9.262,9.262,0,0,0,2.959-2.522,8.388,8.388,0,0,0,1.566-3.7,6.446,6.446,0,0,0-.459-4.175,4.692,4.692,0,0,0-2.733-2.347,18.1,18.1,0,0,0-5.531-.633H159.38l-4.544,25.77h8Zm3.627-20.566h3.5a4.231,4.231,0,0,1,2.852.668,2.045,2.045,0,0,1,.454,1.916,2.872,2.872,0,0,1-.765,1.494,2.626,2.626,0,0,1-1.435.808,12.953,12.953,0,0,1-2.171.352h-3.357Zm19.195,0.3h12.9l-16.922,14.924-0.943,5.344h24.452l0.976-5.537H191.144l17.109-15.082,0.908-5.151H186.626Zm23.18,20.268h11.83a19.877,19.877,0,0,0,4.87-.7,10.579,10.579,0,0,0,3.947-2.048,13.639,13.639,0,0,0,3.283-3.814,19.532,19.532,0,0,0,2.07-6.408,18.771,18.771,0,0,0,.248-4.992,9.414,9.414,0,0,0-1.311-4.131,7.131,7.131,0,0,0-3.079-2.724,12.945,12.945,0,0,0-5.484-.95H213.38ZM222.3,259.9q3.093,0,4.163,1.512t0.347,5.607a13.615,13.615,0,0,1-1.386,4.474,4.843,4.843,0,0,1-1.994,1.934,8.932,8.932,0,0,1-3.648.553h-1.951l2.483-14.08H222.3Zm13.36,19.934h7.647l1.264-7.172h-7.646Zm12.358,0h6.521L258,260.184l1.562,19.652h5.889l8.51-19.652L270.5,279.836H277l4.544-25.77H271.106l-6.79,15.68-1.278-15.68H252.562Zm51.187,0h8.332l-5.141-25.77h-8.684l-14.23,25.77h8.139l2-4.254h9.071Zm-6.881-9.826,4.464-9.264L298,270.01h-5.678Zm25.865,9.826,1.845-10.459h0.7a2.883,2.883,0,0,1,1.846.6,4.719,4.719,0,0,1,1.091,1.986l2.865,7.875h9l-2.532-7.471a8.075,8.075,0,0,0-.834-1.6,6.184,6.184,0,0,0-1.036-1.354,6.463,6.463,0,0,0-1.907-.949,11.366,11.366,0,0,0,2.975-1.02,9.247,9.247,0,0,0,2.958-2.522,8.389,8.389,0,0,0,1.567-3.7,6.439,6.439,0,0,0-.46-4.175,4.693,4.693,0,0,0-2.732-2.347,18.107,18.107,0,0,0-5.531-.633H314.735l-4.544,25.77h8Zm3.627-20.566h3.5a4.236,4.236,0,0,1,2.853.668,2.043,2.043,0,0,1,.453,1.916,2.857,2.857,0,0,1-.765,1.494,2.627,2.627,0,0,1-1.434.808,12.953,12.953,0,0,1-2.171.352h-3.358Zm16.307,20.566h7.963l1.11-6.293,4.872-4.307,3.563,10.6h9.808l-6.978-16.049,11.1-9.721H358.979l-10.066,9.739,1.717-9.739h-7.963Zm29.936,0h21.726L390.814,274H377.068l0.9-5.08h12.392l0.927-5.256H378.891l0.722-4.1h13.359l0.97-5.5H372.6Zm27.627-19.406h8.121l-3.422,19.406h7.963l3.422-19.406h8.121l1.122-6.364h-24.2Z" transform="translate(-154.844 -254.062)"/>
</svg>
