<svg xmlns="http://www.w3.org/2000/svg" style="display:none"><defs><style>.cls-1{fill:red;fill-rule:evenodd}</style><style>.cls-1{fill:#00a200;fill-rule:evenodd}</style><style>.cls-1{fill:#7e807e;fill-rule:evenodd}</style></defs><symbol id="rating-bed" viewBox="0 0 4.875 1.59"><path class="cls-1" d="M4.865 1.58V-.01H.008v1.59h4.857z"/></symbol><symbol id="rating-good" viewBox="0 0 8.5 8.532"><path id="_&#x417;&#x430;&#x43F;&#x430;&#x441;&#x43D;&#x44B;&#x435;_&#x447;&#x430;&#x441;&#x442;&#x438;_&#x41F;&#x43E;&#x434;&#x432;&#x438;&#x436;&#x43D;&#x43E;&#x439;_&#x441;&#x43E;&#x441;&#x442;&#x430;&#x432;_&#x41B;&#x43E;&#x43A;&#x43E;&#x43C;&#x43E;&#x442;&#x438;&#x432;&#x43D;&#x430;&#x44F;_&#x441;&#x43B;&#x443;&#x436;&#x431;&#x430;_759_&#x41F;&#x43E;" data-name="+ &#x417;&#x430;&#x43F;&#x430;&#x441;&#x43D;&#x44B;&#x435; &#x447;&#x430;&#x441;&#x442;&#x438; &#x41F;&#x43E;&#x434;&#x432;&#x438;&#x436;&#x43D;&#x43E;&#x439; &#x441;&#x43E;&#x441;&#x442;&#x430;&#x432; &#x41B;&#x43E;&#x43A;&#x43E;&#x43C;&#x43E;&#x442;&#x438;&#x432;&#x43D;&#x430;&#x44F; &#x441;&#x43B;&#x443;&#x436;&#x431;&#x430; 759 &#x41F;&#x43E;" class="cls-1" d="M414.28 525.582v-3.533h3.505v-1.477h-3.505v-3.506h-1.493v3.506h-3.5v1.477h3.5v3.533h1.493z" transform="translate(-409.281 -517.062)"/></symbol><symbol id="rating-neutral" viewBox="0 0 8.5 13.75"><path id="_&#x417;&#x430;&#x43F;&#x430;&#x441;&#x43D;&#x44B;&#x435;_&#x447;&#x430;&#x441;&#x442;&#x438;_&#x41F;&#x43E;&#x434;&#x432;&#x438;&#x436;&#x43D;&#x43E;&#x439;_&#x441;&#x43E;&#x441;&#x442;&#x430;&#x432;_&#x41B;&#x43E;&#x43A;&#x43E;&#x43C;&#x43E;&#x442;&#x438;&#x432;&#x43D;&#x430;&#x44F;_&#x441;&#x43B;&#x443;&#x436;&#x431;&#x430;_759_&#x41F;&#x43E;" data-name="+ &#x417;&#x430;&#x43F;&#x430;&#x441;&#x43D;&#x44B;&#x435; &#x447;&#x430;&#x441;&#x442;&#x438; &#x41F;&#x43E;&#x434;&#x432;&#x438;&#x436;&#x43D;&#x43E;&#x439; &#x441;&#x43E;&#x441;&#x442;&#x430;&#x432; &#x41B;&#x43E;&#x43A;&#x43E;&#x43C;&#x43E;&#x442;&#x438;&#x432;&#x43D;&#x430;&#x44F; &#x441;&#x43B;&#x443;&#x436;&#x431;&#x430; 759 &#x41F;&#x43E;" class="cls-1" d="M413.709 994.8v-1.591h-4.857v1.591h4.857zm-1.429-5.216v-3.533h3.505v-1.477h-3.505v-3.506h-1.493v3.506h-3.5v1.477h3.5v3.533h1.493z" transform="translate(-407.281 -981.062)"/></symbol><symbol id="temp-icon-left-arrow" viewBox="0 0 31.494 31.494"><path d="M10.273 5.01a1.117 1.117 0 0 1 1.587 1.57l-8.047 8.047h26.554c.62 0 1.127.492 1.127 1.11 0 .62-.508 1.128-1.127 1.128H3.813l8.047 8.032c.43.444.43 1.16 0 1.587a1.112 1.112 0 0 1-1.587 0L.32 16.532a1.12 1.12 0 0 1 0-1.57l9.953-9.953z" fill="#1E201D"/></symbol><symbol id="temp-icon-right-arrow" viewBox="0 0 31.49 31.49"><path d="M21.205 5.007a1.117 1.117 0 0 0-1.587 1.57l8.047 8.048H1.11c-.618 0-1.11.493-1.11 1.112 0 .62.492 1.127 1.11 1.127h26.555l-8.047 8.032c-.43.444-.43 1.16 0 1.587.444.444 1.16.444 1.587 0l9.952-9.952a1.092 1.092 0 0 0 0-1.57l-9.952-9.95z" fill="#1E201D"/></symbol></svg>